<?xml version="1.0" encoding="utf-8"?>
<!-- Generator: Adobe Illustrator 16.0.0, SVG Export Plug-In . SVG Version: 6.00 Build 0)  -->
<!DOCTYPE svg PUBLIC "-//W3C//DTD SVG 1.1//EN" "http://www.w3.org/Graphics/SVG/1.1/DTD/svg11.dtd">
<svg version="1.1" id="Calque_1" xmlns="http://www.w3.org/2000/svg" xmlns:xlink="http://www.w3.org/1999/xlink" x="0px" y="0px"
	 width="9.543px" height="9.583px" viewBox="0 0 9.543 9.583" enable-background="new 0 0 9.543 9.583" xml:space="preserve">
<circle fill="#373E4D" cx="4.792" cy="4.791" r="4.792"/>
<path fill="#FFFFFF" d="M7.738,6.974c-0.059,0-0.116-0.005-0.174-0.013L1.727,6.962C1.688,6.968,1.636,6.974,1.582,6.974
	c-0.627,0-1.137-0.511-1.137-1.138c0-0.669,0.574-1.211,1.262-1.13c0.194-0.686,0.828-1.175,1.546-1.183
	c0.229-1.153,1.233-1.98,2.419-1.98c1.359,0,2.467,1.106,2.467,2.467c0,0.072-0.004,0.145-0.011,0.22
	C8.719,4.4,9.139,4.952,9.139,5.573C9.139,6.345,8.511,6.974,7.738,6.974z M7.577,6.764c0.062,0.007,0.11,0.011,0.161,0.011
	c0.662,0,1.201-0.539,1.201-1.201c0-0.559-0.396-1.052-0.941-1.172L7.91,4.382l0.012-0.09c0.012-0.099,0.018-0.19,0.018-0.282
	c0-1.251-1.018-2.268-2.268-2.268c-1.117,0-2.059,0.799-2.238,1.899L3.42,3.729L3.305,3.724C3.293,3.723,3.282,3.722,3.271,3.722
	c-0.663,0-1.249,0.47-1.392,1.117L1.857,4.934L1.764,4.915C1.158,4.798,0.645,5.26,0.645,5.836c0,0.518,0.42,0.938,0.938,0.938
	c0.045,0,0.088-0.004,0.131-0.01L7.577,6.764z"/>
</svg>
