<?xml version="1.0" encoding="utf-8"?>
<!-- Generator: Adobe Illustrator 16.0.0, SVG Export Plug-In . SVG Version: 6.00 Build 0)  -->
<!DOCTYPE svg PUBLIC "-//W3C//DTD SVG 1.1//EN" "http://www.w3.org/Graphics/SVG/1.1/DTD/svg11.dtd">
<svg version="1.1" id="Calque_1" xmlns="http://www.w3.org/2000/svg" xmlns:xlink="http://www.w3.org/1999/xlink" x="0px" y="0px"
	 width="9.543px" height="9.583px" viewBox="0 0 9.543 9.583" enable-background="new 0 0 9.543 9.583" xml:space="preserve">
<circle fill="#373E4D" cx="4.771" cy="4.791" r="4.792"/>
<path fill="#FFFFFF" d="M2.009,8.314L1.231,7.537l1.813-1.813C2.736,5.258,2.573,4.719,2.573,4.158c0-1.57,1.278-2.849,2.85-2.849
	c1.57,0,2.849,1.278,2.849,2.849c0,1.571-1.278,2.849-2.849,2.849c-0.578,0-1.133-0.172-1.607-0.498L2.009,8.314z M1.513,7.537
	l0.496,0.496l1.785-1.785l0.068,0.051c0.457,0.333,0.996,0.51,1.561,0.51c1.461,0,2.649-1.189,2.649-2.65S6.884,1.509,5.423,1.509
	s-2.65,1.188-2.65,2.649c0,0.547,0.167,1.073,0.482,1.521l0.047,0.068L1.513,7.537z M5.423,6.106c-1.074,0-1.947-0.874-1.947-1.948
	c0-1.073,0.873-1.947,1.947-1.947S7.37,3.085,7.37,4.158C7.37,5.232,6.497,6.106,5.423,6.106z M5.423,2.41
	c-0.965,0-1.749,0.784-1.749,1.748c0,0.965,0.784,1.749,1.749,1.749c0.964,0,1.748-0.784,1.748-1.749
	C7.171,3.194,6.387,2.41,5.423,2.41z"/>
</svg>
