<?xml version="1.0" encoding="utf-8"?>
<!-- Generator: Adobe Illustrator 16.0.0, SVG Export Plug-In . SVG Version: 6.00 Build 0)  -->
<!DOCTYPE svg PUBLIC "-//W3C//DTD SVG 1.1//EN" "http://www.w3.org/Graphics/SVG/1.1/DTD/svg11.dtd">
<svg version="1.1" id="Calque_1" xmlns="http://www.w3.org/2000/svg" xmlns:xlink="http://www.w3.org/1999/xlink" x="0px" y="0px"
	 width="22.946px" height="22.947px" viewBox="0 0 22.946 22.947" enable-background="new 0 0 22.946 22.947" xml:space="preserve">
<g>
	<path fill="#DC631A" d="M11.473,22.947C5.146,22.947,0,17.801,0,11.474C0,5.147,5.146,0.001,11.473,0.001
		s11.474,5.146,11.474,11.473C22.946,17.801,17.799,22.947,11.473,22.947z M11.473,0.398c-6.107,0-11.075,4.969-11.075,11.075
		c0,6.107,4.968,11.076,11.075,11.076s11.076-4.969,11.076-11.076C22.549,5.367,17.58,0.398,11.473,0.398z"/>
	<path fill="#DC631A" d="M11.672,20.129h-0.199c-1.145,0-2.26-0.222-3.313-0.658l-0.184-0.076l0.771-1.862
		c-0.676-0.304-1.289-0.715-1.829-1.223l-1.425,1.425l-0.141-0.141c-0.809-0.808-1.439-1.753-1.877-2.808L3.4,14.603l1.862-0.771
		C5,13.14,4.855,12.416,4.834,11.673H2.818v-0.199c0-1.145,0.221-2.259,0.658-3.312l0.076-0.185L5.415,8.75
		c0.304-0.677,0.714-1.29,1.223-1.829L5.213,5.495l0.141-0.141C6.161,4.546,7.105,3.915,8.16,3.478l0.184-0.076l0.771,1.862
		c0.691-0.263,1.416-0.406,2.158-0.429V2.819h0.199c1.146,0,2.26,0.222,3.313,0.658l0.184,0.076l-0.771,1.862
		c0.676,0.304,1.289,0.715,1.83,1.223l1.425-1.425l0.141,0.141c0.808,0.808,1.439,1.753,1.877,2.808l0.076,0.184l-1.862,0.771
		c0.263,0.691,0.406,1.416,0.428,2.158h2.016v0.198c0,1.146-0.221,2.26-0.657,3.313l-0.076,0.185l-1.862-0.772
		c-0.305,0.677-0.715,1.29-1.224,1.829l1.426,1.426l-0.141,0.141c-0.808,0.809-1.753,1.439-2.808,1.877l-0.184,0.076l-0.771-1.862
		c-0.691,0.263-1.416,0.406-2.158,0.429V20.129z M8.497,19.178c0.889,0.344,1.821,0.528,2.776,0.551v-2.011h0.199
		c0.826,0,1.631-0.159,2.39-0.475l0.185-0.076l0.77,1.858c0.871-0.387,1.662-0.915,2.354-1.573l-1.422-1.422l0.141-0.141
		c0.582-0.583,1.038-1.265,1.354-2.025l0.076-0.185l1.857,0.771c0.344-0.889,0.529-1.821,0.552-2.777h-2.011v-0.199
		c0-0.825-0.16-1.63-0.475-2.39L17.166,8.9l1.857-0.77c-0.386-0.872-0.914-1.662-1.573-2.353l-1.421,1.421l-0.141-0.141
		c-0.584-0.583-1.266-1.038-2.025-1.354l-0.185-0.076l0.77-1.858c-0.888-0.344-1.819-0.528-2.776-0.551V5.23h-0.199
		c-0.826,0-1.631,0.159-2.39,0.475L8.899,5.781L8.13,3.923C7.258,4.31,6.467,4.838,5.776,5.497l1.422,1.421L7.058,7.059
		C6.475,7.642,6.02,8.323,5.703,9.084L5.627,9.269L3.77,8.499c-0.344,0.888-0.529,1.82-0.551,2.776h2.01v0.198
		c0,0.827,0.16,1.631,0.475,2.391l0.076,0.184l-1.857,0.77c0.387,0.872,0.914,1.662,1.573,2.353l1.422-1.421l0.141,0.141
		c0.583,0.583,1.265,1.038,2.025,1.354l0.184,0.076L8.497,19.178z M11.473,13.16c-0.93,0-1.686-0.757-1.686-1.687
		c0-0.929,0.756-1.686,1.686-1.686s1.686,0.757,1.686,1.686C13.158,12.403,12.402,13.16,11.473,13.16z M11.473,10.187
		c-0.71,0-1.287,0.577-1.287,1.287c0,0.711,0.577,1.288,1.287,1.288c0.711,0,1.288-0.577,1.288-1.288
		C12.761,10.764,12.184,10.187,11.473,10.187z"/>
</g>
</svg>
