<?xml version="1.0" encoding="utf-8"?>
<!-- Generator: Adobe Illustrator 16.0.0, SVG Export Plug-In . SVG Version: 6.00 Build 0)  -->
<!DOCTYPE svg PUBLIC "-//W3C//DTD SVG 1.1//EN" "http://www.w3.org/Graphics/SVG/1.1/DTD/svg11.dtd">
<svg version="1.1" id="Calque_1" xmlns="http://www.w3.org/2000/svg" xmlns:xlink="http://www.w3.org/1999/xlink" x="0px" y="0px"
	 width="9.543px" height="9.583px" viewBox="0 0 9.543 9.583" enable-background="new 0 0 9.543 9.583" xml:space="preserve">
<circle fill="#373E4D" cx="4.772" cy="4.791" r="4.792"/>
<path fill="#FFFFFF" d="M4.871,8.273h-0.1c-0.461,0-0.908-0.089-1.332-0.265L3.348,7.971l0.309-0.746
	C3.396,7.105,3.16,6.948,2.951,6.753l-0.57,0.57l-0.07-0.07C1.984,6.929,1.73,6.549,1.555,6.124L1.517,6.032l0.745-0.309
	C2.163,5.456,2.107,5.177,2.098,4.891H1.29v-0.1c0-0.46,0.089-0.908,0.265-1.332l0.038-0.092l0.745,0.309
	c0.119-0.26,0.277-0.496,0.473-0.705L2.24,2.399l0.07-0.07c0.324-0.324,0.704-0.578,1.129-0.755l0.092-0.038L3.84,2.282
	c0.268-0.1,0.547-0.155,0.832-0.166V1.31h0.1c0.461,0,0.909,0.089,1.333,0.265l0.092,0.038l-0.31,0.746
	c0.26,0.119,0.497,0.277,0.706,0.472l0.571-0.571l0.07,0.07c0.324,0.325,0.578,0.705,0.754,1.13l0.039,0.092L7.281,3.859
	c0.1,0.268,0.154,0.547,0.166,0.833h0.807v0.099c0,0.461-0.09,0.909-0.266,1.333L7.951,6.216L7.205,5.907
	c-0.119,0.26-0.277,0.496-0.472,0.705l0.571,0.57l-0.07,0.07c-0.326,0.326-0.705,0.58-1.13,0.756L6.013,8.047l-0.31-0.746
	C5.437,7.4,5.157,7.456,4.871,7.466V8.273z M3.607,7.861c0.342,0.13,0.699,0.201,1.064,0.212V7.27h0.1
	c0.328,0,0.646-0.063,0.949-0.188l0.092-0.038l0.307,0.742c0.334-0.149,0.637-0.353,0.902-0.603L6.453,6.614l0.07-0.07
	C6.756,6.313,6.936,6.042,7.061,5.74L7.1,5.647l0.742,0.308c0.13-0.341,0.201-0.698,0.211-1.064H7.25v-0.1
	c0-0.327-0.064-0.646-0.189-0.947L7.023,3.752l0.742-0.309C7.615,3.11,7.414,2.808,7.162,2.541L6.594,3.109l-0.07-0.07
	c-0.23-0.23-0.502-0.412-0.803-0.537L5.629,2.464l0.307-0.742C5.595,1.592,5.237,1.521,4.871,1.51v0.804h-0.1
	c-0.328,0-0.646,0.063-0.947,0.188L3.731,2.54L3.424,1.798C3.091,1.947,2.788,2.15,2.521,2.4L3.09,2.969l-0.07,0.07
	c-0.23,0.231-0.412,0.502-0.537,0.805L2.444,3.936L1.701,3.628C1.572,3.969,1.502,4.325,1.49,4.692h0.804v0.099
	c0,0.328,0.063,0.647,0.188,0.949l0.038,0.092L1.777,6.14c0.15,0.333,0.354,0.636,0.604,0.902l0.568-0.568l0.07,0.07
	c0.231,0.23,0.502,0.412,0.805,0.537l0.092,0.038L3.607,7.861z M4.771,5.485c-0.383,0-0.693-0.312-0.693-0.694
	c0-0.382,0.311-0.693,0.693-0.693s0.694,0.312,0.694,0.693C5.466,5.174,5.154,5.485,4.771,5.485z M4.771,4.296
	c-0.273,0-0.495,0.223-0.495,0.495c0,0.273,0.222,0.496,0.495,0.496s0.496-0.223,0.496-0.496C5.268,4.519,5.045,4.296,4.771,4.296z"
	/>
</svg>
