<?xml version="1.0" encoding="utf-8"?>
<!-- Generator: Adobe Illustrator 16.0.0, SVG Export Plug-In . SVG Version: 6.00 Build 0)  -->
<!DOCTYPE svg PUBLIC "-//W3C//DTD SVG 1.1//EN" "http://www.w3.org/Graphics/SVG/1.1/DTD/svg11.dtd">
<svg version="1.1" id="Calque_1" xmlns="http://www.w3.org/2000/svg" xmlns:xlink="http://www.w3.org/1999/xlink" x="0px" y="0px"
	 width="22.946px" height="22.947px" viewBox="0 0 22.946 22.947" enable-background="new 0 0 22.946 22.947" xml:space="preserve">
<g>
	<path fill="#DC631A" d="M11.473,22.947C5.146,22.947,0,17.801,0,11.474C0,5.147,5.146,0,11.473,0s11.474,5.147,11.474,11.474
		C22.946,17.801,17.799,22.947,11.473,22.947z M11.473,0.398c-6.107,0-11.076,4.969-11.076,11.075s4.969,11.075,11.076,11.075
		s11.076-4.969,11.076-11.075S17.58,0.398,11.473,0.398z"/>
	<path fill="#DC631A" d="M11.473,13.229c-2.503,0-4.539-2.035-4.539-4.539c0-2.502,2.036-4.539,4.539-4.539s4.539,2.037,4.539,4.539
		C16.012,11.193,13.976,13.229,11.473,13.229z M11.473,4.549c-2.283,0-4.141,1.857-4.141,4.141c0,2.284,1.857,4.142,4.141,4.142
		s4.142-1.857,4.142-4.142C15.614,6.406,13.756,4.549,11.473,4.549z"/>
	<path fill="#DC631A" d="M11.473,22.326c-2.985,0-5.77-1.19-7.838-3.352L3.58,18.918V15.86c0-1.405,1.143-2.548,2.549-2.548h1.006
		l4.37,4.369l4.37-4.369h0.941c1.406,0,2.549,1.143,2.549,2.548v3.058l-0.055,0.057C17.242,21.136,14.459,22.326,11.473,22.326z
		 M3.979,18.758c1.986,2.045,4.645,3.17,7.494,3.17s5.508-1.125,7.495-3.17V15.86c0-1.187-0.965-2.151-2.151-2.151H16.04
		l-4.535,4.535l-4.534-4.535H6.129c-1.187,0-2.15,0.965-2.15,2.151V18.758z"/>
</g>
</svg>
