<?xml version="1.0" encoding="utf-8"?>
<!-- Generator: Adobe Illustrator 16.0.0, SVG Export Plug-In . SVG Version: 6.00 Build 0)  -->
<!DOCTYPE svg PUBLIC "-//W3C//DTD SVG 1.1//EN" "http://www.w3.org/Graphics/SVG/1.1/DTD/svg11.dtd">
<svg version="1.1" id="Calque_1" xmlns="http://www.w3.org/2000/svg" xmlns:xlink="http://www.w3.org/1999/xlink" x="0px" y="0px"
	 width="22.946px" height="22.947px" viewBox="0 0 22.946 22.947" enable-background="new 0 0 22.946 22.947" xml:space="preserve">
<g>
	<path fill="#DC631A" d="M11.473,22.947C5.146,22.947,0,17.8,0,11.474S5.146,0,11.473,0s11.474,5.147,11.474,11.473
		S17.799,22.947,11.473,22.947z M11.473,0.398c-6.107,0-11.076,4.969-11.076,11.076c0,6.107,4.969,11.075,11.076,11.075
		s11.076-4.968,11.076-11.075C22.549,5.367,17.58,0.398,11.473,0.398z"/>
	<rect x="1.503" y="16.672" fill="#DC631A" width="19.871" height="0.397"/>
	<path fill="#DC631A" d="M7.005,17.069H3.743v-6.788h3.262V17.069z M4.141,16.672h2.467v-5.993H4.141V16.672z"/>
	<path fill="#DC631A" d="M9.869,17.069H6.607V8.956h3.262V17.069z M7.005,16.672h2.466V9.354H7.005V16.672z"/>
	<path fill="#DC631A" d="M12.732,17.069H9.471V7.418h3.262V17.069z M9.869,16.672h2.465V7.815H9.869V16.672z"/>
	<path fill="#DC631A" d="M15.596,17.069h-3.262V5.721h3.262V17.069z M12.732,16.672h2.466V6.119h-2.466V16.672z"/>
	<path fill="#DC631A" d="M18.46,17.069h-3.262V4.342h3.262V17.069z M15.596,16.672h2.467V4.74h-2.467V16.672z"/>
</g>
</svg>
